<svg width="18" height="22" viewBox="0 0 18 22" fill="none" xmlns="http://www.w3.org/2000/svg">
<path d="M9.75 0.5V5.75C9.75 6.34674 9.98705 6.91903 10.409 7.34099C10.831 7.76295 11.4033 8 12 8H17.25V19.25C17.25 19.8467 17.0129 20.419 16.591 20.841C16.169 21.2629 15.5967 21.5 15 21.5H3C2.40326 21.5 1.83097 21.2629 1.40901 20.841C0.987053 20.419 0.75 19.8467 0.75 19.25V2.75C0.75 2.15326 0.987053 1.58097 1.40901 1.15901C1.83097 0.737053 2.40326 0.5 3 0.5H9.75ZM11.25 0.58775V5.75C11.25 5.94891 11.329 6.13968 11.4697 6.28033C11.6103 6.42098 11.8011 6.5 12 6.5H17.1623C17.057 6.13355 16.8603 5.79986 16.5907 5.53025L12.2197 1.16C11.9502 0.890141 11.6165 0.693225 11.25 0.58775Z" fill="#0067A0"/>
</svg>
