<svg width="28" height="28" viewBox="0 0 28 28" fill="none" xmlns="http://www.w3.org/2000/svg">
<path d="M23.3334 3.33332H20.6667V1.99999C20.6667 1.64637 20.5262 1.30723 20.2762 1.05718C20.0261 0.807132 19.687 0.666656 19.3334 0.666656C18.9797 0.666656 18.6406 0.807132 18.3905 1.05718C18.1405 1.30723 18 1.64637 18 1.99999V3.33332H10V1.99999C10 1.64637 9.85954 1.30723 9.6095 1.05718C9.35945 0.807132 9.02031 0.666656 8.66669 0.666656C8.31307 0.666656 7.97393 0.807132 7.72388 1.05718C7.47383 1.30723 7.33335 1.64637 7.33335 1.99999V3.33332H4.66669C3.60582 3.33332 2.58841 3.75475 1.83826 4.5049C1.08811 5.25504 0.666687 6.27246 0.666687 7.33332V23.3333C0.666687 24.3942 1.08811 25.4116 1.83826 26.1618C2.58841 26.9119 3.60582 27.3333 4.66669 27.3333H23.3334C24.3942 27.3333 25.4116 26.9119 26.1618 26.1618C26.9119 25.4116 27.3334 24.3942 27.3334 23.3333V7.33332C27.3334 6.27246 26.9119 5.25504 26.1618 4.5049C25.4116 3.75475 24.3942 3.33332 23.3334 3.33332ZM24.6667 23.3333C24.6667 23.6869 24.5262 24.0261 24.2762 24.2761C24.0261 24.5262 23.687 24.6667 23.3334 24.6667H4.66669C4.31307 24.6667 3.97393 24.5262 3.72388 24.2761C3.47383 24.0261 3.33335 23.6869 3.33335 23.3333V14H24.6667V23.3333ZM24.6667 11.3333H3.33335V7.33332C3.33335 6.9797 3.47383 6.64056 3.72388 6.39051C3.97393 6.14047 4.31307 5.99999 4.66669 5.99999H7.33335V7.33332C7.33335 7.68695 7.47383 8.02608 7.72388 8.27613C7.97393 8.52618 8.31307 8.66666 8.66669 8.66666C9.02031 8.66666 9.35945 8.52618 9.6095 8.27613C9.85954 8.02608 10 7.68695 10 7.33332V5.99999H18V7.33332C18 7.68695 18.1405 8.02608 18.3905 8.27613C18.6406 8.52618 18.9797 8.66666 19.3334 8.66666C19.687 8.66666 20.0261 8.52618 20.2762 8.27613C20.5262 8.02608 20.6667 7.68695 20.6667 7.33332V5.99999H23.3334C23.687 5.99999 24.0261 6.14047 24.2762 6.39051C24.5262 6.64056 24.6667 6.9797 24.6667 7.33332V11.3333Z" fill="#0067A0"/>
</svg>
