<svg width="120" height="123" viewBox="0 0 120 123" fill="none" xmlns="http://www.w3.org/2000/svg">
<path d="M102.426 104.585C113.26 93.5804 119.539 78.7824 119.976 63.2253C120.412 47.6683 114.974 32.5308 104.776 20.9165C94.5772 9.30214 80.3913 2.09087 65.1264 0.76114C49.8614 -0.56859 34.674 4.08397 22.6779 13.7649C10.6817 23.4459 2.78575 37.4218 0.608781 52.8273C-1.56818 68.2328 2.1388 83.9006 10.9697 96.6185C19.8007 109.336 33.0864 118.141 48.1032 121.227C63.12 124.313 78.73 121.446 91.7328 113.215L85.4112 102.91C74.9987 109.502 62.4984 111.797 50.4732 109.326C38.448 106.855 27.809 99.8043 20.7373 89.6199C13.6657 79.4356 10.6972 66.889 12.4404 54.5526C14.1837 42.2161 20.5067 31.0244 30.113 23.272C39.7193 15.5197 51.8812 11.794 64.1051 12.8588C76.329 13.9236 87.6889 19.6983 95.8557 28.9989C104.022 38.2995 108.377 50.4213 108.028 62.8792C107.678 75.337 102.65 87.187 93.9744 95.9996L102.426 104.585Z" fill="#0067A0"/>
<path d="M102.426 18.3899C94.0352 9.866 83.3443 4.06114 71.7054 1.70939C60.0666 -0.642351 48.0026 0.564652 37.039 5.17777C26.0754 9.79088 16.7047 17.6029 10.1118 27.626C3.51893 37.6491 -1.79185e-06 49.433 0 61.4876C1.79185e-06 73.5423 3.51894 85.3262 10.1118 95.3493C16.7047 105.372 26.0754 113.184 37.039 117.798C48.0026 122.411 60.0666 123.618 71.7054 121.266C83.3443 118.914 94.0353 113.109 102.426 104.585L93.9744 95.9996C87.2549 102.825 78.6937 107.474 69.3735 109.357C60.0533 111.24 50.3926 110.274 41.6132 106.58C32.8337 102.886 25.3298 96.6298 20.0503 88.6035C14.7708 80.5772 11.9529 71.1408 11.9529 61.4876C11.9529 51.8345 14.7708 42.3981 20.0503 34.3718C25.3298 26.3454 32.8337 20.0897 41.6132 16.3956C50.3926 12.7015 60.0533 11.7349 69.3735 13.6181C78.6937 15.5014 87.2549 20.1498 93.9744 26.9757L102.426 18.3899Z" fill="#00A0A0"/>
<path d="M102.426 104.585C95.4493 111.673 86.8593 116.903 77.4171 119.813C67.9749 122.722 57.972 123.221 48.2946 121.266C38.6171 119.31 29.5637 114.961 21.9364 108.602C14.3091 102.243 8.34319 94.0722 4.56723 84.8119C0.791268 75.5517 -0.678225 65.4885 0.288916 55.5135C1.25606 45.5386 4.62998 35.96 10.1118 27.626C15.5937 19.292 23.0142 12.46 31.7162 7.73509C40.4182 3.0102 50.1329 0.538269 60 0.538269V12.6803C52.0986 12.6803 44.3192 14.6598 37.3508 18.4434C30.3824 22.2271 24.4401 27.698 20.0503 34.3717C15.6605 41.0455 12.9588 48.7159 12.1843 56.7037C11.4098 64.6914 12.5866 72.7499 15.6103 80.1654C18.634 87.5808 23.4114 94.1243 29.5193 99.2162C35.6271 104.308 42.8769 107.791 50.6265 109.357C58.376 110.923 66.3862 110.523 73.9473 108.193C81.5085 105.863 88.3873 101.675 93.9744 95.9996L102.426 104.585Z" fill="#ED7A7A"/>
<path d="M102.426 104.585C91.1742 116.016 75.913 122.437 60 122.437C44.087 122.437 28.8258 116.016 17.5736 104.585C6.32141 93.1551 7.4294e-07 77.6524 0 61.4876C-7.4294e-07 45.3229 6.32141 29.8202 17.5736 18.3899L26.0256 26.9757C17.015 36.1288 11.9529 48.5431 11.9529 61.4876C11.9529 74.4321 17.015 86.8465 26.0256 95.9996C35.0362 105.153 47.2571 110.295 60 110.295C72.7429 110.295 84.9638 105.153 93.9744 95.9996L102.426 104.585Z" fill="#C4C4C4"/>
<path d="M88.2838 115.24C80.2248 119.616 71.2883 122.064 62.1563 122.398C53.0242 122.731 43.9377 120.942 35.5902 117.165C27.2426 113.389 19.8544 107.725 13.9894 100.607C8.12429 93.4887 3.93729 85.1036 1.74778 76.0914L13.3525 73.1821C15.1058 80.3989 18.4587 87.1136 23.1554 92.8138C27.852 98.514 33.7684 103.049 40.453 106.073C47.1376 109.097 54.4139 110.531 61.7267 110.263C69.0395 109.996 76.1957 108.036 82.6492 104.532L88.2838 115.24Z" fill="#C04601"/>
<path d="M102.426 104.585C94.0388 113.106 83.3533 118.909 71.7199 121.263C60.0866 123.617 48.0275 122.415 37.0664 117.809L41.6351 106.589C50.4126 110.277 60.0694 111.24 69.3851 109.355C78.701 107.47 87.2578 102.823 93.9744 95.9996L102.426 104.585Z" fill="#D2B100"/>
</svg>
