<svg width="29" height="23" viewBox="0 0 29 23" fill="none" xmlns="http://www.w3.org/2000/svg">
<path d="M4 3.00002L18.342 2.99602C18.166 3.49602 18.052 4.03002 18.014 4.58202L18 5.00002H4C3.46957 5.00002 2.96086 5.21074 2.58579 5.58581C2.21071 5.96088 2 6.46959 2 7.00002V7.38202L13 12.882L19.936 9.41402C20.516 9.94802 21.2 10.368 21.956 10.642L13.446 14.894C13.2229 15.0057 12.9661 15.03 12.726 14.962L12.55 14.894L2 9.62002V19C2 19.5305 2.21071 20.0392 2.58579 20.4142C2.96086 20.7893 3.46957 21 4 21H22C22.5304 21 23.0391 20.7893 23.4142 20.4142C23.7893 20.0392 24 19.5305 24 19V11C24.702 11 25.376 10.88 26 10.658V19C26 20.0609 25.5786 21.0783 24.8284 21.8285C24.0783 22.5786 23.0609 23 22 23H4C2.93913 23 1.92172 22.5786 1.17157 21.8285C0.421427 21.0783 0 20.0609 0 19V7.00002C0 5.93916 0.421427 4.92174 1.17157 4.1716C1.92172 3.42145 2.93913 3.00002 4 3.00002ZM24 9.00002C23.848 9.00002 23.7 8.99202 23.552 8.97602L23.208 8.92202L23.076 8.89202L22.892 8.84402C22.6742 8.78158 22.462 8.70062 22.258 8.60202L21.924 8.42002C21.3844 8.09226 20.93 7.64141 20.598 7.10435C20.266 6.56729 20.0659 5.95927 20.014 5.33002L20 5.00002L20.004 4.82002L20.022 4.57802L20.066 4.27402L20.15 3.91002L20.254 3.59602L20.378 3.30002L20.538 2.99802C20.8381 2.47846 21.2513 2.03307 21.7469 1.69484C22.2425 1.35661 22.8078 1.1342 23.401 1.0441C23.9942 0.954004 24.6001 0.998513 25.1738 1.17434C25.7475 1.35016 26.2743 1.65279 26.7151 2.05981C27.156 2.46683 27.4996 2.96782 27.7206 3.52567C27.9415 4.08351 28.0342 4.68392 27.9916 5.28243C27.9491 5.88093 27.7724 6.4622 27.4747 6.98317C27.1771 7.50414 26.766 7.95147 26.272 8.29202L25.982 8.47602L25.7 8.62202L25.32 8.77802L25.2 8.81802L24.894 8.89802L24.662 8.94602L24.348 8.98602C24.2323 8.99567 24.1161 9.00034 24 9.00002Z" fill="#9909CB"/>
</svg>
