<svg width="26" height="30" viewBox="0 0 26 30" fill="none" xmlns="http://www.w3.org/2000/svg">
<path d="M13 15C16.6819 15 19.6667 12.0152 19.6667 8.33332C19.6667 4.65142 16.6819 1.66666 13 1.66666C9.31814 1.66666 6.33337 4.65142 6.33337 8.33332C6.33337 12.0152 9.31814 15 13 15Z" stroke="#00AA8B" stroke-width="2"/>
<path d="M19.6667 17.6667H20.136C21.1108 17.6669 22.0519 18.0231 22.7826 18.6684C23.5133 19.3136 23.9832 20.2034 24.104 21.1707L24.6254 25.336C24.6723 25.7112 24.6388 26.0922 24.5272 26.4535C24.4157 26.8148 24.2285 27.1483 23.9782 27.4317C23.7279 27.7152 23.4202 27.9422 23.0754 28.0976C22.7307 28.2531 22.3569 28.3334 21.9787 28.3333H4.02137C3.64322 28.3334 3.26937 28.2531 2.92463 28.0976C2.5799 27.9422 2.27218 27.7152 2.02187 27.4317C1.77157 27.1483 1.58442 26.8148 1.47285 26.4535C1.36127 26.0922 1.32782 25.7112 1.37471 25.336L1.89471 21.1707C2.01564 20.203 2.48593 19.3128 3.21715 18.6675C3.94837 18.0222 4.89014 17.6663 5.86537 17.6667H6.33337" stroke="#00AA8B" stroke-width="2" stroke-linecap="round" stroke-linejoin="round"/>
</svg>
