<svg width="20" height="16" viewBox="0 0 20 16" fill="none" xmlns="http://www.w3.org/2000/svg">
<path d="M19.5 4.488V12.875C19.5 14.325 18.325 15.5 16.875 15.5H3.125C2.42881 15.5 1.76113 15.2234 1.26884 14.7312C0.776562 14.2389 0.5 13.5712 0.5 12.875V4.488L9.699 9.548C9.8865 9.651 10.114 9.651 10.301 9.548L19.5 4.4875V4.488ZM16.875 0.5C17.5602 0.500064 18.2183 0.768076 18.7086 1.24679C19.1989 1.7255 19.4826 2.37696 19.499 3.062L10 8.287L0.501 3.0615L0.502 3.0165C0.530001 2.33963 0.818603 1.69979 1.30745 1.23079C1.79631 0.761786 2.44755 0.499937 3.125 0.5H16.875Z" fill="white"/>
</svg>
