<svg width="11" height="20" viewBox="0 0 11 20" fill="none" xmlns="http://www.w3.org/2000/svg">
<path d="M2.3333 19.3333C2.02176 19.3339 1.71985 19.2254 1.47997 19.0267C1.34495 18.9147 1.23335 18.7773 1.15155 18.6221C1.06975 18.467 1.01935 18.2973 1.00325 18.1226C0.98715 17.948 1.00566 17.7719 1.05772 17.6044C1.10978 17.437 1.19436 17.2814 1.30663 17.1467L7.27997 10L1.51997 2.84C1.40921 2.70362 1.3265 2.54669 1.27659 2.37824C1.22669 2.20979 1.21056 2.03313 1.22915 1.85843C1.24773 1.68372 1.30066 1.51441 1.38489 1.36023C1.46912 1.20605 1.583 1.07003 1.71997 0.960002C1.85792 0.83862 2.01948 0.747063 2.19449 0.691078C2.36951 0.635093 2.55421 0.615888 2.737 0.634667C2.91979 0.653447 3.09673 0.709807 3.2567 0.800209C3.41668 0.890612 3.55624 1.01311 3.66663 1.16L10.1066 9.16C10.3027 9.39858 10.41 9.69784 10.41 10.0067C10.41 10.3155 10.3027 10.6148 10.1066 10.8533L3.43997 18.8533C3.30621 19.0147 3.1363 19.1422 2.94402 19.2256C2.75174 19.309 2.54251 19.3459 2.3333 19.3333Z" fill="#9F9F9F"/>
</svg>
