<svg width="84" height="84" viewBox="0 0 84 84" fill="none" xmlns="http://www.w3.org/2000/svg">
<path d="M42 83.6667C18.9875 83.6667 0.333313 65.0125 0.333313 42C0.333313 18.9875 18.9875 0.333344 42 0.333344C65.0125 0.333344 83.6667 18.9875 83.6667 42C83.6667 65.0125 65.0125 83.6667 42 83.6667ZM42 75.3334C50.8405 75.3334 59.319 71.8215 65.5702 65.5702C71.8214 59.319 75.3333 50.8406 75.3333 42C75.3333 33.1595 71.8214 24.681 65.5702 18.4298C59.319 12.1786 50.8405 8.66668 42 8.66668C33.1594 8.66668 24.681 12.1786 18.4298 18.4298C12.1785 24.681 8.66665 33.1595 8.66665 42C8.66665 50.8406 12.1785 59.319 18.4298 65.5702C24.681 71.8215 33.1594 75.3334 42 75.3334ZM27.4166 50.3333H50.3333C50.8859 50.3333 51.4158 50.1139 51.8065 49.7232C52.1972 49.3325 52.4166 48.8025 52.4166 48.25C52.4166 47.6975 52.1972 47.1676 51.8065 46.7769C51.4158 46.3862 50.8859 46.1667 50.3333 46.1667H33.6666C30.904 46.1667 28.2545 45.0692 26.301 43.1157C24.3474 41.1622 23.25 38.5127 23.25 35.75C23.25 32.9873 24.3474 30.3378 26.301 28.3843C28.2545 26.4308 30.904 25.3333 33.6666 25.3333H37.8333V17H46.1666V25.3333H56.5833V33.6667H33.6666C33.1141 33.6667 32.5842 33.8862 32.1935 34.2769C31.8028 34.6676 31.5833 35.1975 31.5833 35.75C31.5833 36.3025 31.8028 36.8325 32.1935 37.2232C32.5842 37.6139 33.1141 37.8333 33.6666 37.8333H50.3333C53.096 37.8333 55.7455 38.9308 57.699 40.8843C59.6525 42.8378 60.75 45.4873 60.75 48.25C60.75 51.0127 59.6525 53.6622 57.699 55.6157C55.7455 57.5692 53.096 58.6667 50.3333 58.6667H46.1666V67H37.8333V58.6667H27.4166V50.3333Z" fill="#0067A0"/>
</svg>
