<svg width="100" height="100" viewBox="0 0 100 100" fill="none" xmlns="http://www.w3.org/2000/svg">
<path d="M100 50C100 77.6142 77.6142 100 50 100C22.3858 100 0 77.6142 0 50C0 22.3858 22.3858 0 50 0C77.6142 0 100 22.3858 100 50ZM7.81459 50C7.81459 73.2984 26.7016 92.1854 50 92.1854C73.2984 92.1854 92.1854 73.2984 92.1854 50C92.1854 26.7016 73.2984 7.81459 50 7.81459C26.7016 7.81459 7.81459 26.7016 7.81459 50Z" fill="#E5E5E5"/>
<path d="M66.9807 92.8508C67.7757 94.857 70.0549 95.8526 71.9929 94.9034C79.4567 91.2478 85.9114 85.7789 90.7508 78.9719C96.3469 71.1006 99.5437 61.7771 99.9547 52.128C100.366 42.4789 97.9735 32.9173 93.067 24.5986C88.824 17.4048 82.8578 11.4067 75.7319 7.12961C73.8817 6.01907 71.5261 6.81722 70.5634 8.74851C69.6006 10.6798 70.3976 13.0107 72.2315 14.1479C78.0135 17.7333 82.8601 22.6754 86.336 28.5687C90.4756 35.5872 92.494 43.6544 92.1472 51.7954C91.8004 59.9364 89.1033 67.8028 84.3818 74.4438C80.4173 80.0202 75.168 84.5322 69.102 87.6128C67.178 88.59 66.1857 90.8447 66.9807 92.8508Z" fill="#0067A0"/>
<path d="M40.58 25V46H36.68V28.27H32.24V25H40.58ZM54.4058 46.3C52.7258 46.3 51.2258 45.88 49.9058 45.04C48.5858 44.18 47.5458 42.94 46.7858 41.32C46.0258 39.68 45.6458 37.74 45.6458 35.5C45.6458 33.26 46.0258 31.33 46.7858 29.71C47.5458 28.07 48.5858 26.83 49.9058 25.99C51.2258 25.13 52.7258 24.7 54.4058 24.7C56.0858 24.7 57.5858 25.13 58.9058 25.99C60.2458 26.83 61.2958 28.07 62.0558 29.71C62.8158 31.33 63.1958 33.26 63.1958 35.5C63.1958 37.74 62.8158 39.68 62.0558 41.32C61.2958 42.94 60.2458 44.18 58.9058 45.04C57.5858 45.88 56.0858 46.3 54.4058 46.3ZM54.4058 42.91C55.9058 42.91 57.0858 42.29 57.9458 41.05C58.8258 39.81 59.2658 37.96 59.2658 35.5C59.2658 33.04 58.8258 31.19 57.9458 29.95C57.0858 28.71 55.9058 28.09 54.4058 28.09C52.9258 28.09 51.7458 28.71 50.8658 29.95C50.0058 31.19 49.5758 33.04 49.5758 35.5C49.5758 37.96 50.0058 39.81 50.8658 41.05C51.7458 42.29 52.9258 42.91 54.4058 42.91Z" fill="black"/>
<path d="M39.5 54.95H42.3L34.05 78.5H31.25L39.5 54.95ZM49.9342 58.5V76H46.6842V61.225H42.9842V58.5H49.9342ZM65.5057 66.8C66.4223 67.2167 67.1223 67.7833 67.6057 68.5C68.1057 69.2 68.3557 70.025 68.3557 70.975C68.3557 72.0417 68.0557 72.975 67.4557 73.775C66.8723 74.575 66.039 75.1917 64.9557 75.625C63.8723 76.0417 62.614 76.25 61.1807 76.25C59.7473 76.25 58.489 76.0417 57.4057 75.625C56.339 75.1917 55.514 74.575 54.9307 73.775C54.3473 72.975 54.0557 72.0417 54.0557 70.975C54.0557 70.025 54.2973 69.2 54.7807 68.5C55.264 67.7833 55.9557 67.2167 56.8557 66.8C56.1557 66.4167 55.614 65.9167 55.2307 65.3C54.864 64.6667 54.6807 63.9417 54.6807 63.125C54.6807 62.1417 54.9473 61.2833 55.4807 60.55C56.0307 59.8167 56.7973 59.25 57.7807 58.85C58.764 58.45 59.8973 58.25 61.1807 58.25C62.4807 58.25 63.6223 58.45 64.6057 58.85C65.589 59.25 66.3557 59.8167 66.9057 60.55C67.4557 61.2833 67.7307 62.1417 67.7307 63.125C67.7307 63.9417 67.539 64.6583 67.1557 65.275C66.7723 65.8917 66.2223 66.4 65.5057 66.8ZM61.1807 60.8C60.164 60.8 59.3557 61.0167 58.7557 61.45C58.1723 61.8833 57.8807 62.4917 57.8807 63.275C57.8807 64.025 58.1723 64.625 58.7557 65.075C59.3557 65.5083 60.164 65.725 61.1807 65.725C62.214 65.725 63.0307 65.5083 63.6307 65.075C64.2307 64.625 64.5307 64.025 64.5307 63.275C64.5307 62.4917 64.2223 61.8833 63.6057 61.45C63.0057 61.0167 62.1973 60.8 61.1807 60.8ZM61.1807 73.7C62.3807 73.7 63.3307 73.45 64.0307 72.95C64.7307 72.45 65.0807 71.7583 65.0807 70.875C65.0807 70.0083 64.7307 69.325 64.0307 68.825C63.3307 68.325 62.3807 68.075 61.1807 68.075C59.9807 68.075 59.039 68.325 58.3557 68.825C57.6723 69.325 57.3307 70.0083 57.3307 70.875C57.3307 71.7583 57.6723 72.45 58.3557 72.95C59.039 73.45 59.9807 73.7 61.1807 73.7Z" fill="#9F9F9F"/>
</svg>
