<svg width="100" height="100" viewBox="0 0 100 100" fill="none" xmlns="http://www.w3.org/2000/svg">
<path d="M68.75 68.75V87.5H18.75V12.5H50V6.25H18.75C17.0924 6.25 15.5027 6.90848 14.3306 8.08058C13.1585 9.25268 12.5 10.8424 12.5 12.5V87.5C12.5 89.1576 13.1585 90.7473 14.3306 91.9194C15.5027 93.0915 17.0924 93.75 18.75 93.75H68.75C70.4076 93.75 71.9973 93.0915 73.1694 91.9194C74.3415 90.7473 75 89.1576 75 87.5V68.75H68.75Z" fill="#0067A0"/>
<path d="M92.3125 18L82 7.68749C81.0653 6.77136 79.8088 6.25821 78.5 6.25821C77.1912 6.25821 75.9346 6.77136 75 7.68749L31.25 51.4375V68.75H48.5312L92.2812 25C93.1974 24.0653 93.7105 22.8088 93.7105 21.5C93.7105 20.1912 93.1974 18.9346 92.2812 18H92.3125ZM45.9375 62.5H37.5V54.0625L67 24.5312L75.4687 33L45.9375 62.5ZM79.875 28.5937L71.4062 20.125L78.5 13.0312L86.9687 21.5L79.875 28.5937Z" fill="#0067A0"/>
</svg>
