<svg width="46" height="46" viewBox="0 0 46 46" fill="none" xmlns="http://www.w3.org/2000/svg">
<path d="M43.5555 18.4167L39.6667 17.1667L38.8333 15.0834L40.7778 11.4723C41.1944 10.6389 41.0555 9.52783 40.3611 8.83339L37.0278 5.50005C36.3333 4.80561 35.2222 4.66672 34.3889 5.08339L30.7778 7.02783L28.6944 6.1945L27.4444 2.30561C27.1667 1.47228 26.3333 0.777832 25.3611 0.777832H20.6389C19.6667 0.777832 18.8333 1.47228 18.6944 2.4445L17.4444 6.33339C16.6111 6.47228 15.9167 6.75005 15.2222 7.16672L11.6111 5.22228C10.7778 4.80561 9.66666 4.9445 8.97222 5.63894L5.63888 8.97228C4.94444 9.66672 4.80555 10.7778 5.22222 11.6112L7.02777 15.0834C6.74999 15.7778 6.47222 16.6112 6.19444 17.3056L2.30555 18.5556C1.47222 18.8334 0.777771 19.6667 0.777771 20.6389V25.3612C0.777771 26.3334 1.47222 27.1667 2.44444 27.4445L6.33333 28.6945L7.16666 30.7778L5.22222 34.3889C4.80555 35.2223 4.94444 36.3334 5.63888 37.0278L8.97222 40.3612C9.66666 41.0556 10.7778 41.1945 11.6111 40.7778L15.2222 38.8334L17.3055 39.6667L18.5555 43.6945C18.8333 44.5278 19.6667 45.2223 20.6389 45.2223H25.3611C26.3333 45.2223 27.1667 44.5278 27.4444 43.6945L28.6944 39.6667L30.7778 38.8334L34.3889 40.7778C35.2222 41.1945 36.3333 41.0556 37.0278 40.3612L40.3611 37.0278C41.0555 36.3334 41.1944 35.2223 40.7778 34.3889L38.8333 30.7778L39.6667 28.6945L43.6944 27.4445C44.5278 27.1667 45.2222 26.3334 45.2222 25.3612V20.6389C45.2222 19.6667 44.5278 18.6945 43.5555 18.4167ZM42.4444 24.9445L37.4444 26.4723L37.3055 27.1667L36.0555 30.0834L35.6389 30.7778L38.1389 35.3612L35.3611 38.1389L30.7778 35.6389L30.0833 36.0556C29.1111 36.6112 28.1389 37.0278 27.1667 37.3056L26.4722 37.4445L24.9444 42.4445H21.0555L19.5278 37.4445L18.8333 37.3056L15.9167 36.0556L15.2222 35.6389L10.6389 38.1389L7.8611 35.3612L10.3611 30.7778L9.94444 30.0834C9.38888 29.1112 8.97221 28.1389 8.69444 27.1667L8.55555 26.4723L3.55555 24.9445V21.0556L8.27777 19.6667L8.55555 18.9723C8.83333 17.8612 9.24999 16.8889 9.80555 15.9167L10.2222 15.2223L7.8611 10.6389L10.6389 7.86117L15.0833 10.3612L15.7778 9.9445C16.75 9.38894 17.7222 8.97228 18.8333 8.6945L19.5278 8.41672L21.0555 3.55561H24.9444L26.4722 8.41672L27.1667 8.6945C28.1389 8.97228 29.1111 9.38894 30.0833 9.9445L30.7778 10.3612L35.3611 7.86117L38.1389 10.6389L35.6389 15.2223L36.0555 15.9167C36.6111 16.8889 37.0278 17.8612 37.3055 18.8334L37.4444 19.5278L42.4444 21.0556V24.9445Z" fill="#9F9F9F"/>
</svg>
