<svg width="34" height="41" viewBox="0 0 34 41" fill="none" xmlns="http://www.w3.org/2000/svg">
<path d="M17 40.8333C19.2917 40.8333 21.1667 38.9583 21.1667 36.6666H12.8334C12.8334 38.9583 14.7084 40.8333 17 40.8333ZM29.5 28.3333V17.9166C29.5 11.5208 26.1042 6.16665 20.125 4.74998V3.33331C20.125 1.60415 18.7292 0.208313 17 0.208313C15.2709 0.208313 13.875 1.60415 13.875 3.33331V4.74998C7.91671 6.16665 4.50004 11.5 4.50004 17.9166V28.3333L0.333374 32.5V34.5833H33.6667V32.5L29.5 28.3333ZM25.3334 30.4166H8.66671V17.9166C8.66671 12.75 11.8125 8.54165 17 8.54165C22.1875 8.54165 25.3334 12.75 25.3334 17.9166V30.4166Z" fill="#9F9F9F"/>
</svg>
