<svg
              xmlns="http://www.w3.org/2000/svg"
              x="0"
              y="0"
              enable-background="new 0 0 64 64"
              version="1.1"
              xml:space="preserve"
              class="menu-btn__icon close"
            >
              <path
                d="M35.4,32l19.9-19.9c1-1,1-2.4,0-3.4s-2.4-1-3.4,0L32,28.6L12,8.8c-0.9-1-2.4-1-3.3,0s-1,2.4,0,3.4L28.6,32L8.7,51.9	c-1,1-1,2.4,0,3.4c0.5,0.4,1,0.7,1.7,0.7s1.2-0.2,1.7-0.7l20-19.9l20,19.8c0.5,0.4,1.2,0.7,1.7,0.7c0.5,0,1.2-0.2,1.7-0.7	c1-1,1-2.4,0-3.4L35.4,32z"
              />
            </svg>