<svg width="46" height="46" viewBox="0 0 46 46" fill="none" xmlns="http://www.w3.org/2000/svg">
<path d="M43.5556 18.4167L39.6667 17.1667L38.8334 15.0833L40.7778 11.4722C41.1945 10.6389 41.0556 9.52777 40.3612 8.83333L37.0278 5.49999C36.3334 4.80555 35.2223 4.66666 34.3889 5.08333L30.7778 7.02777L28.6945 6.19444L27.4445 2.30555C27.1667 1.47222 26.3334 0.777771 25.3612 0.777771H20.6389C19.6667 0.777771 18.8334 1.47222 18.6945 2.44444L17.4445 6.33333C16.6112 6.47222 15.9167 6.74999 15.2223 7.16666L11.6112 5.22222C10.7778 4.80555 9.66672 4.94444 8.97228 5.63888L5.63894 8.97222C4.9445 9.66666 4.80561 10.7778 5.22228 11.6111L7.02783 15.0833C6.75005 15.7778 6.47228 16.6111 6.1945 17.3055L2.30561 18.5555C1.47228 18.8333 0.777832 19.6667 0.777832 20.6389V25.3611C0.777832 26.3333 1.47228 27.1667 2.4445 27.4444L6.33339 28.6944L7.16672 30.7778L5.22228 34.3889C4.80561 35.2222 4.9445 36.3333 5.63894 37.0278L8.97228 40.3611C9.66672 41.0555 10.7778 41.1944 11.6112 40.7778L15.2223 38.8333L17.3056 39.6667L18.5556 43.6944C18.8334 44.5278 19.6667 45.2222 20.6389 45.2222H25.3612C26.3334 45.2222 27.1667 44.5278 27.4445 43.6944L28.6945 39.6667L30.7778 38.8333L34.3889 40.7778C35.2223 41.1944 36.3334 41.0555 37.0278 40.3611L40.3612 37.0278C41.0556 36.3333 41.1945 35.2222 40.7778 34.3889L38.8334 30.7778L39.6667 28.6944L43.6945 27.4444C44.5278 27.1667 45.2223 26.3333 45.2223 25.3611V20.6389C45.2223 19.6667 44.5278 18.6944 43.5556 18.4167ZM42.4445 24.9444L37.4445 26.4722L37.3056 27.1667L36.0556 30.0833L35.6389 30.7778L38.1389 35.3611L35.3612 38.1389L30.7778 35.6389L30.0834 36.0555C29.1112 36.6111 28.1389 37.0278 27.1667 37.3055L26.4723 37.4444L24.9445 42.4444H21.0556L19.5278 37.4444L18.8334 37.3055L15.9167 36.0555L15.2223 35.6389L10.6389 38.1389L7.86117 35.3611L10.3612 30.7778L9.9445 30.0833C9.38894 29.1111 8.97228 28.1389 8.6945 27.1667L8.55561 26.4722L3.55561 24.9444V21.0555L8.27783 19.6667L8.55561 18.9722C8.83339 17.8611 9.25005 16.8889 9.80561 15.9167L10.2223 15.2222L7.86117 10.6389L10.6389 7.8611L15.0834 10.3611L15.7778 9.94444C16.7501 9.38888 17.7223 8.97221 18.8334 8.69444L19.5278 8.41666L21.0556 3.55555H24.9445L26.4723 8.41666L27.1667 8.69444C28.1389 8.97221 29.1112 9.38888 30.0834 9.94444L30.7778 10.3611L35.3612 7.8611L38.1389 10.6389L35.6389 15.2222L36.0556 15.9167C36.6112 16.8889 37.0278 17.8611 37.3056 18.8333L37.4445 19.5278L42.4445 21.0555V24.9444Z" fill="#9F9F9F"/>
</svg>
