<svg width="228" height="168" viewBox="0 0 228 168" fill="none" xmlns="http://www.w3.org/2000/svg">
<ellipse cx="87.2449" cy="84" rx="87.2449" ry="84" fill="#FED810" fill-opacity="0.3"/>
<path d="M215.075 68.6933V111.098L191.292 88.2L186.736 92.5867L210.099 115.111H129.963L152.582 92.5867L147.929 88.2622L124.599 111.502V57.6178L164.764 96.1022C165.974 97.2611 167.612 97.9116 169.32 97.9116C171.027 97.9116 172.665 97.2611 173.876 96.1022L202.408 68.7867C200.131 68.2145 197.954 67.3235 195.946 66.1422L169.255 91.6845L128.832 52.8889H185.379C184.754 50.868 184.417 48.7748 184.377 46.6667H124.599C122.885 46.6667 121.241 47.3222 120.029 48.4891C118.817 49.656 118.136 51.2387 118.136 52.8889V115.111C118.136 116.761 118.817 118.344 120.029 119.511C121.241 120.678 122.885 121.333 124.599 121.333H215.075C216.789 121.333 218.433 120.678 219.645 119.511C220.856 118.344 221.537 116.761 221.537 115.111V65.9556C219.535 67.169 217.357 68.0915 215.075 68.6933Z" fill="#0067A0"/>
<path d="M208.612 61.7867C217.535 61.7867 224.769 54.8222 224.769 46.2311C224.769 37.64 217.535 30.6755 208.612 30.6755C199.689 30.6755 192.456 37.64 192.456 46.2311C192.456 54.8222 199.689 61.7867 208.612 61.7867Z" fill="#0067A0"/>
</svg>
