<svg width="34" height="41" viewBox="0 0 34 41" fill="none" xmlns="http://www.w3.org/2000/svg">
<path d="M17 40.8333C19.2917 40.8333 21.1667 38.9583 21.1667 36.6666H12.8333C12.8333 38.9583 14.7083 40.8333 17 40.8333ZM29.5 28.3333V17.9166C29.5 11.5208 26.1042 6.16658 20.125 4.74992V3.33325C20.125 1.60409 18.7292 0.208252 17 0.208252C15.2708 0.208252 13.875 1.60409 13.875 3.33325V4.74992C7.91666 6.16658 4.49999 11.4999 4.49999 17.9166V28.3333L0.333328 32.4999V34.5833H33.6667V32.4999L29.5 28.3333ZM25.3333 30.4166H8.66666V17.9166C8.66666 12.7499 11.8125 8.54158 17 8.54158C22.1875 8.54158 25.3333 12.7499 25.3333 17.9166V30.4166Z" fill="#9F9F9F"/>
</svg>
