<svg width="24" height="24" viewBox="0 0 24 24" fill="none" xmlns="http://www.w3.org/2000/svg">
<g clip-path="url(#clip0)">
<path d="M15.0605 12.9058L19.8753 8.412C20.0975 8.20459 20.0975 7.86493 19.8753 7.65602L18.1668 6.06139C18.059 5.96173 17.9135 5.90582 17.7618 5.90582C17.6101 5.90582 17.4646 5.96173 17.3568 6.06139L12.542 10.5552L7.72718 6.06139C7.61943 5.96173 7.47388 5.90582 7.32219 5.90582C7.17049 5.90582 7.02494 5.96173 6.91719 6.06139L5.21027 7.65602C5.15705 7.70564 5.11483 7.76456 5.08603 7.82942C5.05723 7.89428 5.0424 7.9638 5.0424 8.03401C5.0424 8.10422 5.05723 8.17374 5.08603 8.2386C5.11483 8.30346 5.15705 8.36238 5.21027 8.412L10.0235 12.9058L5.20866 17.3996C4.98644 17.607 4.98644 17.9467 5.20866 18.1556L6.91719 19.7503C7.02494 19.8499 7.17049 19.9058 7.32219 19.9058C7.47388 19.9058 7.61943 19.8499 7.72718 19.7503L12.542 15.2549L17.3568 19.7503C17.4646 19.8499 17.6101 19.9058 17.7618 19.9058C17.9135 19.9058 18.059 19.8499 18.1668 19.7503L19.8753 18.1556C20.0975 17.9467 20.0975 17.607 19.8753 17.3996L15.0605 12.9058Z" fill="#C13838"/>
</g>
<circle cx="12" cy="12" r="11.5" stroke="#B44343"/>
<defs>
<clipPath id="clip0">
<rect width="15" height="14" fill="white" transform="translate(3 4)"/>
</clipPath>
</defs>
</svg>
