<svg width="215" height="55" viewBox="0 0 215 55" fill="none" xmlns="http://www.w3.org/2000/svg">
<path d="M200.64 10.0179C201.813 10.0819 202.704 10.4019 203.312 10.9779C203.931 11.5433 204.24 12.2846 204.24 13.2019C204.24 13.8419 204.085 14.4126 203.776 14.9139C203.467 15.4046 203.008 15.7939 202.4 16.0819C201.792 16.3699 201.051 16.5139 200.176 16.5139C199.365 16.5139 198.597 16.3859 197.872 16.1299C197.157 15.8633 196.581 15.5113 196.144 15.0739L196.704 14.1619C197.077 14.5459 197.573 14.8606 198.192 15.1059C198.811 15.3406 199.472 15.4579 200.176 15.4579C201.093 15.4579 201.803 15.2606 202.304 14.8659C202.805 14.4606 203.056 13.9059 203.056 13.2019C203.056 12.5086 202.805 11.9646 202.304 11.5699C201.803 11.1753 201.045 10.9779 200.032 10.9779H199.232V10.1299L202.336 6.24192H196.608V5.21792H203.808V6.03392L200.64 10.0179ZM210.073 10.0179C211.246 10.0819 212.137 10.4019 212.745 10.9779C213.364 11.5433 213.673 12.2846 213.673 13.2019C213.673 13.8419 213.518 14.4126 213.209 14.9139C212.9 15.4046 212.441 15.7939 211.833 16.0819C211.225 16.3699 210.484 16.5139 209.609 16.5139C208.798 16.5139 208.03 16.3859 207.305 16.1299C206.59 15.8633 206.014 15.5113 205.577 15.0739L206.137 14.1619C206.51 14.5459 207.006 14.8606 207.625 15.1059C208.244 15.3406 208.905 15.4579 209.609 15.4579C210.526 15.4579 211.236 15.2606 211.737 14.8659C212.238 14.4606 212.489 13.9059 212.489 13.2019C212.489 12.5086 212.238 11.9646 211.737 11.5699C211.236 11.1753 210.478 10.9779 209.465 10.9779H208.665V10.1299L211.769 6.24192H206.041V5.21792H213.241V6.03392L210.073 10.0179Z" fill="black"/>
<path d="M153.776 9.80992C155.397 9.80992 156.576 10.1033 157.312 10.6899C158.059 11.2659 158.432 12.0766 158.432 13.1219C158.432 13.7726 158.277 14.3539 157.968 14.8659C157.669 15.3779 157.216 15.7833 156.608 16.0819C156 16.3699 155.253 16.5139 154.368 16.5139C153.568 16.5139 152.805 16.3859 152.08 16.1299C151.365 15.8633 150.789 15.5113 150.352 15.0739L150.912 14.1619C151.285 14.5459 151.776 14.8606 152.384 15.1059C152.992 15.3406 153.648 15.4579 154.352 15.4579C155.28 15.4579 155.995 15.2499 156.496 14.8339C157.008 14.4179 157.264 13.8633 157.264 13.1699C157.264 12.4019 156.976 11.8206 156.4 11.4259C155.835 11.0313 154.875 10.8339 153.52 10.8339H151.136L151.712 5.21792H157.84V6.24192H152.72L152.336 9.80992H153.776ZM166.79 10.5459C167.495 10.7806 168.033 11.1326 168.406 11.6019C168.791 12.0713 168.983 12.6366 168.983 13.2979C168.983 13.9486 168.807 14.5193 168.455 15.0099C168.103 15.4899 167.596 15.8633 166.934 16.1299C166.284 16.3859 165.516 16.5139 164.63 16.5139C163.286 16.5139 162.23 16.2259 161.462 15.6499C160.694 15.0739 160.31 14.2899 160.31 13.2979C160.31 12.6259 160.492 12.0606 160.854 11.6019C161.228 11.1326 161.766 10.7806 162.47 10.5459C161.894 10.3219 161.457 10.0019 161.158 9.58592C160.86 9.15926 160.71 8.65792 160.71 8.08192C160.71 7.17526 161.062 6.45526 161.766 5.92192C162.481 5.38859 163.436 5.12192 164.63 5.12192C165.42 5.12192 166.108 5.24459 166.694 5.48992C167.292 5.72459 167.756 6.06592 168.087 6.51392C168.417 6.96192 168.582 7.48459 168.582 8.08192C168.582 8.65792 168.428 9.15926 168.118 9.58592C167.809 10.0019 167.366 10.3219 166.79 10.5459ZM161.862 8.11392C161.862 8.73259 162.108 9.22326 162.598 9.58592C163.089 9.94859 163.766 10.1299 164.63 10.1299C165.494 10.1299 166.172 9.94859 166.662 9.58592C167.164 9.22326 167.414 8.73792 167.414 8.12992C167.414 7.50059 167.158 7.00459 166.647 6.64192C166.145 6.27926 165.473 6.09792 164.63 6.09792C163.777 6.09792 163.1 6.27926 162.598 6.64192C162.108 7.00459 161.862 7.49526 161.862 8.11392ZM164.63 15.5379C165.622 15.5379 166.396 15.3353 166.951 14.9299C167.516 14.5246 167.799 13.9753 167.799 13.2819C167.799 12.5886 167.516 12.0446 166.951 11.6499C166.396 11.2446 165.622 11.0419 164.63 11.0419C163.649 11.0419 162.876 11.2446 162.31 11.6499C161.756 12.0446 161.478 12.5886 161.478 13.2819C161.478 13.9859 161.756 14.5406 162.31 14.9459C162.865 15.3406 163.638 15.5379 164.63 15.5379Z" fill="black"/>
<path d="M101.936 5.21792V16.4179H100.784V6.24192H98.144V5.21792H101.936ZM109.557 16.5139C108.693 16.5139 107.92 16.2846 107.237 15.8259C106.565 15.3673 106.037 14.7113 105.653 13.8579C105.28 12.9939 105.093 11.9806 105.093 10.8179C105.093 9.65526 105.28 8.64726 105.653 7.79392C106.037 6.92992 106.565 6.26859 107.237 5.80992C107.92 5.35126 108.693 5.12192 109.557 5.12192C110.421 5.12192 111.189 5.35126 111.861 5.80992C112.544 6.26859 113.077 6.92992 113.461 7.79392C113.845 8.64726 114.037 9.65526 114.037 10.8179C114.037 11.9806 113.845 12.9939 113.461 13.8579C113.077 14.7113 112.544 15.3673 111.861 15.8259C111.189 16.2846 110.421 16.5139 109.557 16.5139ZM109.557 15.4579C110.208 15.4579 110.779 15.2766 111.269 14.9139C111.771 14.5513 112.16 14.0233 112.437 13.3299C112.715 12.6366 112.853 11.7993 112.853 10.8179C112.853 9.83659 112.715 8.99926 112.437 8.30592C112.16 7.61259 111.771 7.08459 111.269 6.72192C110.779 6.35926 110.208 6.17792 109.557 6.17792C108.907 6.17792 108.331 6.35926 107.829 6.72192C107.339 7.08459 106.955 7.61259 106.677 8.30592C106.4 8.99926 106.261 9.83659 106.261 10.8179C106.261 11.7993 106.4 12.6366 106.677 13.3299C106.955 14.0233 107.339 14.5513 107.829 14.9139C108.331 15.2766 108.907 15.4579 109.557 15.4579ZM122.583 10.5459C123.287 10.7806 123.826 11.1326 124.199 11.6019C124.583 12.0713 124.775 12.6366 124.775 13.2979C124.775 13.9486 124.599 14.5193 124.247 15.0099C123.895 15.4899 123.388 15.8633 122.727 16.1299C122.076 16.3859 121.308 16.5139 120.423 16.5139C119.079 16.5139 118.023 16.2259 117.255 15.6499C116.487 15.0739 116.103 14.2899 116.103 13.2979C116.103 12.6259 116.284 12.0606 116.647 11.6019C117.02 11.1326 117.559 10.7806 118.263 10.5459C117.687 10.3219 117.25 10.0019 116.951 9.58592C116.652 9.15926 116.503 8.65792 116.503 8.08192C116.503 7.17526 116.855 6.45526 117.559 5.92192C118.274 5.38859 119.228 5.12192 120.423 5.12192C121.212 5.12192 121.9 5.24459 122.487 5.48992C123.084 5.72459 123.548 6.06592 123.879 6.51392C124.21 6.96192 124.375 7.48459 124.375 8.08192C124.375 8.65792 124.22 9.15926 123.911 9.58592C123.602 10.0019 123.159 10.3219 122.583 10.5459ZM117.655 8.11392C117.655 8.73259 117.9 9.22326 118.391 9.58592C118.882 9.94859 119.559 10.1299 120.423 10.1299C121.287 10.1299 121.964 9.94859 122.455 9.58592C122.956 9.22326 123.207 8.73792 123.207 8.12992C123.207 7.50059 122.951 7.00459 122.439 6.64192C121.938 6.27926 121.266 6.09792 120.423 6.09792C119.57 6.09792 118.892 6.27926 118.391 6.64192C117.9 7.00459 117.655 7.49526 117.655 8.11392ZM120.423 15.5379C121.415 15.5379 122.188 15.3353 122.743 14.9299C123.308 14.5246 123.591 13.9753 123.591 13.2819C123.591 12.5886 123.308 12.0446 122.743 11.6499C122.188 11.2446 121.415 11.0419 120.423 11.0419C119.442 11.0419 118.668 11.2446 118.103 11.6499C117.548 12.0446 117.271 12.5886 117.271 13.2819C117.271 13.9859 117.548 14.5406 118.103 14.9459C118.658 15.3406 119.431 15.5379 120.423 15.5379Z" fill="black"/>
<path d="M10.352 13.4739H8.112V16.4179H6.96V13.4739H0.64V12.6419L6.576 5.21792H7.856L2.128 12.4499H6.992V9.85792H8.112V12.4499H10.352V13.4739ZM14.7716 9.80992C16.393 9.80992 17.5716 10.1033 18.3076 10.6899C19.0543 11.2659 19.4276 12.0766 19.4276 13.1219C19.4276 13.7726 19.273 14.3539 18.9636 14.8659C18.665 15.3779 18.2116 15.7833 17.6036 16.0819C16.9956 16.3699 16.249 16.5139 15.3636 16.5139C14.5636 16.5139 13.801 16.3859 13.0756 16.1299C12.361 15.8633 11.785 15.5113 11.3476 15.0739L11.9076 14.1619C12.281 14.5459 12.7716 14.8606 13.3796 15.1059C13.9876 15.3406 14.6436 15.4579 15.3476 15.4579C16.2756 15.4579 16.9903 15.2499 17.4916 14.8339C18.0036 14.4179 18.2596 13.8633 18.2596 13.1699C18.2596 12.4019 17.9716 11.8206 17.3956 11.4259C16.8303 11.0313 15.8703 10.8339 14.5156 10.8339H12.1316L12.7076 5.21792H18.8356V6.24192H13.7156L13.3316 9.80992H14.7716ZM25.8341 16.5139C24.9701 16.5139 24.1968 16.2846 23.5141 15.8259C22.8421 15.3673 22.3141 14.7113 21.9301 13.8579C21.5568 12.9939 21.3701 11.9806 21.3701 10.8179C21.3701 9.65526 21.5568 8.64726 21.9301 7.79392C22.3141 6.92992 22.8421 6.26859 23.5141 5.80992C24.1968 5.35126 24.9701 5.12192 25.8341 5.12192C26.6981 5.12192 27.4661 5.35126 28.1381 5.80992C28.8208 6.26859 29.3541 6.92992 29.7381 7.79392C30.1221 8.64726 30.3141 9.65526 30.3141 10.8179C30.3141 11.9806 30.1221 12.9939 29.7381 13.8579C29.3541 14.7113 28.8208 15.3673 28.1381 15.8259C27.4661 16.2846 26.6981 16.5139 25.8341 16.5139ZM25.8341 15.4579C26.4848 15.4579 27.0555 15.2766 27.5461 14.9139C28.0475 14.5513 28.4368 14.0233 28.7141 13.3299C28.9915 12.6366 29.1301 11.7993 29.1301 10.8179C29.1301 9.83659 28.9915 8.99926 28.7141 8.30592C28.4368 7.61259 28.0475 7.08459 27.5461 6.72192C27.0555 6.35926 26.4848 6.17792 25.8341 6.17792C25.1835 6.17792 24.6075 6.35926 24.1061 6.72192C23.6155 7.08459 23.2315 7.61259 22.9541 8.30592C22.6768 8.99926 22.5381 9.83659 22.5381 10.8179C22.5381 11.7993 22.6768 12.6366 22.9541 13.3299C23.2315 14.0233 23.6155 14.5513 24.1061 14.9139C24.6075 15.2766 25.1835 15.4579 25.8341 15.4579Z" fill="black"/>
<path d="M53.936 5.21792V16.4179H52.784V6.24192H50.144V5.21792H53.936ZM60.0373 9.80992C61.6586 9.80992 62.8373 10.1033 63.5733 10.6899C64.3199 11.2659 64.6933 12.0766 64.6933 13.1219C64.6933 13.7726 64.5386 14.3539 64.2293 14.8659C63.9306 15.3779 63.4773 15.7833 62.8693 16.0819C62.2613 16.3699 61.5146 16.5139 60.6293 16.5139C59.8293 16.5139 59.0666 16.3859 58.3413 16.1299C57.6266 15.8633 57.0506 15.5113 56.6133 15.0739L57.1733 14.1619C57.5466 14.5459 58.0373 14.8606 58.6453 15.1059C59.2533 15.3406 59.9093 15.4579 60.6133 15.4579C61.5413 15.4579 62.2559 15.2499 62.7573 14.8339C63.2693 14.4179 63.5253 13.8633 63.5253 13.1699C63.5253 12.4019 63.2373 11.8206 62.6613 11.4259C62.0959 11.0313 61.1359 10.8339 59.7813 10.8339H57.3973L57.9733 5.21792H64.1013V6.24192H58.9813L58.5973 9.80992H60.0373ZM69.5016 9.80992C71.123 9.80992 72.3016 10.1033 73.0376 10.6899C73.7843 11.2659 74.1576 12.0766 74.1576 13.1219C74.1576 13.7726 74.003 14.3539 73.6936 14.8659C73.395 15.3779 72.9416 15.7833 72.3336 16.0819C71.7256 16.3699 70.979 16.5139 70.0936 16.5139C69.2936 16.5139 68.531 16.3859 67.8056 16.1299C67.091 15.8633 66.515 15.5113 66.0776 15.0739L66.6376 14.1619C67.011 14.5459 67.5016 14.8606 68.1096 15.1059C68.7176 15.3406 69.3736 15.4579 70.0776 15.4579C71.0056 15.4579 71.7203 15.2499 72.2216 14.8339C72.7336 14.4179 72.9896 13.8633 72.9896 13.1699C72.9896 12.4019 72.7016 11.8206 72.1256 11.4259C71.5603 11.0313 70.6003 10.8339 69.2456 10.8339H66.8616L67.4376 5.21792H73.5656V6.24192H68.4456L68.0616 9.80992H69.5016Z" fill="black"/>
<rect x="6" y="33.9398" width="20" height="20.3165" rx="10" fill="#0067A0"/>
<rect x="52" y="33.9398" width="20" height="20.3165" rx="10" fill="#D2B100"/>
<rect x="102" y="33.9398" width="20" height="20.3165" rx="10" fill="#C04601"/>
<rect x="150" y="33.9398" width="20" height="20.3165" rx="10" fill="#00A0A0"/>
<rect x="195" y="33.9398" width="20" height="20.3165" rx="10" fill="#ED7A7A"/>
</svg>
