<svg width="88" height="88" viewBox="0 0 88 88" fill="none" xmlns="http://www.w3.org/2000/svg">
<path d="M72.125 25.25H71.9375C71.1423 18.3982 67.8569 12.0775 62.706 7.48975C57.5551 2.90201 50.8978 0.367157 44 0.367157C37.1022 0.367157 30.4449 2.90201 25.294 7.48975C20.1431 12.0775 16.8577 18.3982 16.0625 25.25H15.875C11.731 25.25 7.75671 26.8962 4.82646 29.8264C1.8962 32.7567 0.25 36.731 0.25 40.875C0.25 45.019 1.8962 48.9933 4.82646 51.9235C7.75671 54.8538 11.731 56.5 15.875 56.5H22.125V28.375C22.125 22.5734 24.4297 17.0094 28.532 12.907C32.6344 8.80466 38.1984 6.49998 44 6.49998C49.8016 6.49998 55.3656 8.80466 59.468 12.907C63.5703 17.0094 65.875 22.5734 65.875 28.375V59.625C65.8729 62.4882 64.8879 65.2638 63.0848 67.4879C61.2816 69.712 58.7696 71.2496 55.9688 71.8437C55.1345 68.918 53.262 66.3969 50.702 64.7531C48.142 63.1092 45.0704 62.4554 42.0629 62.9141C39.0553 63.3729 36.3183 64.9128 34.3649 67.2452C32.4115 69.5775 31.3757 72.5422 31.4517 75.5836C31.5278 78.625 32.7104 81.5342 34.7779 83.7661C36.8455 85.9979 39.656 87.3991 42.6827 87.707C45.7094 88.0149 48.7445 87.2084 51.2191 85.4387C53.6938 83.669 55.438 81.0575 56.125 78.0937C60.5594 77.4363 64.6114 75.2119 67.5467 71.8237C70.482 68.4355 72.1062 64.1078 72.125 59.625V56.5C76.269 56.5 80.2433 54.8538 83.1735 51.9235C86.1038 48.9933 87.75 45.019 87.75 40.875C87.75 36.731 86.1038 32.7567 83.1735 29.8264C80.2433 26.8962 76.269 25.25 72.125 25.25ZM6.5 40.875C6.5 38.3886 7.48772 36.004 9.24587 34.2458C11.004 32.4877 13.3886 31.5 15.875 31.5V50.25C13.3886 50.25 11.004 49.2623 9.24587 47.5041C7.48772 45.7459 6.5 43.3614 6.5 40.875ZM44 81.5C42.7639 81.5 41.5555 81.1334 40.5277 80.4467C39.4999 79.7599 38.6988 78.7838 38.2258 77.6417C37.7527 76.4997 37.6289 75.243 37.8701 74.0307C38.1112 72.8183 38.7065 71.7046 39.5806 70.8306C40.4547 69.9565 41.5683 69.3612 42.7807 69.1201C43.9931 68.8789 45.2497 69.0027 46.3918 69.4757C47.5338 69.9488 48.5099 70.7499 49.1967 71.7777C49.8834 72.8055 50.25 74.0138 50.25 75.25C50.25 76.9076 49.5915 78.4973 48.4194 79.6694C47.2473 80.8415 45.6576 81.5 44 81.5ZM72.125 50.25V31.5C74.6114 31.5 76.996 32.4877 78.7541 34.2458C80.5123 36.004 81.5 38.3886 81.5 40.875C81.5 43.3614 80.5123 45.7459 78.7541 47.5041C76.996 49.2623 74.6114 50.25 72.125 50.25Z" fill="#0067A0"/>
</svg>
