<svg width="32" height="32" viewBox="0 0 32 32" fill="none" xmlns="http://www.w3.org/2000/svg">
<path d="M32 19.4666C32 20.2666 30.4 20.8 28.5333 21.0666C27.3333 18.8 24.9333 17.0666 22.1333 15.8666C22.4 15.4666 22.6667 15.2 22.9333 14.8H24C28.1333 14.6666 32 17.2 32 19.4666ZM9.06667 14.6666H8C3.86667 14.6666 0 17.2 0 19.4666C0 20.2666 1.6 20.8 3.46667 21.0666C4.66667 18.8 7.06667 17.0666 9.86667 15.8666L9.06667 14.6666ZM16 16C18.9333 16 21.3333 13.6 21.3333 10.6666C21.3333 7.73331 18.9333 5.33331 16 5.33331C13.0667 5.33331 10.6667 7.73331 10.6667 10.6666C10.6667 13.6 13.0667 16 16 16ZM16 17.3333C10.5333 17.3333 5.33333 20.8 5.33333 24C5.33333 26.6666 16 26.6666 16 26.6666C16 26.6666 26.6667 26.6666 26.6667 24C26.6667 20.8 21.4667 17.3333 16 17.3333ZM23.6 13.3333H24C26.2667 13.3333 28 11.6 28 9.33331C28 7.06665 26.2667 5.33331 24 5.33331C23.3333 5.33331 22.8 5.46665 22.2667 5.73331C23.3333 7.06665 24 8.79998 24 10.6666C24 11.6 23.8667 12.5333 23.6 13.3333ZM8 13.3333H8.4C8.13333 12.5333 8 11.6 8 10.6666C8 8.79998 8.66667 7.06665 9.73333 5.73331C9.2 5.46665 8.66667 5.33331 8 5.33331C5.73333 5.33331 4 7.06665 4 9.33331C4 11.6 5.73333 13.3333 8 13.3333Z" fill="#0067A0"/>
</svg>
