<svg width="24" height="24" viewBox="0 0 24 24" fill="none" xmlns="http://www.w3.org/2000/svg">
<path d="M12.2467 7.44666C11.7071 7.44729 11.1721 7.54437 10.6667 7.73332L16.5334 13.6C16.7248 13.0884 16.8219 12.5463 16.82 12C16.8147 10.7905 16.3306 9.63242 15.4735 8.77907C14.6164 7.92573 13.4562 7.44664 12.2467 7.44666Z" fill="#9F9F9F"/>
<path d="M22.86 11.6867C20.6133 7.53335 16.6733 5.02002 12.3133 5.02002C11.1262 5.02281 9.94712 5.21408 8.82001 5.58669L9.89334 6.66669C10.6839 6.46237 11.4968 6.35712 12.3133 6.35335C16.0667 6.35335 19.48 8.44668 21.5133 11.9734C20.7674 13.2818 19.7786 14.4357 18.6 15.3734L19.5467 16.32C20.9107 15.2196 22.0436 13.8601 22.88 12.32L23.0533 12L22.86 11.6867Z" fill="#9F9F9F"/>
<path d="M3.24667 3.85332L6.22 6.82665C4.34062 8.03673 2.8046 9.7105 1.76 11.6867L1.58667 12L1.76 12.32C4.00667 16.4733 7.94667 18.9867 12.3067 18.9867C14.0084 18.9863 15.6881 18.6011 17.22 17.86L20.5533 21.1933L21.72 20.1933L4.38667 2.85999L3.24667 3.85332ZM8.78 9.38665C8.15629 10.2663 7.86395 11.3382 7.95475 12.4126C8.04554 13.4871 8.51361 14.4948 9.27607 15.2572C10.0385 16.0197 11.0462 16.4878 12.1207 16.5786C13.1951 16.6694 14.2671 16.377 15.1467 15.7533L16.2133 16.82C14.9785 17.3478 13.6496 17.62 12.3067 17.62C8.55334 17.62 5.14 15.5267 3.10667 12C4.08247 10.2721 5.48782 8.82545 7.18667 7.79999L8.78 9.38665Z" fill="#9F9F9F"/>
</svg>
